# xmcd
#
# Track frame offsets:
#	150
#	15015
#	28410
#	41320
#	61655
#	76259
#	90716
#	108292
#	122396
#	138947
#	159107
#	173288
#	185177
#	200455
#
# Disc length: 2880 seconds
# Revision: 1
# Processed by: cddbd v1.5.2PL0 Copyright (c) Steve Scherf et al.
# Submitted via: dBpowerAMP V12.0
#
DISCID=990b3e0e
DTITLE=Collard Greens and Gravy - Luedella
DYEAR=2017
DGENRE=Blues
TTITLE0=Boogie
TTITLE1=You Upset my Mind
TTITLE2=Better Watch Yourself
TTITLE3=Back to Bogalusa
TTITLE4=Tell me Mama
TTITLE5=Cant Hold Out Much Longer
TTITLE6=I Dont go For That
TTITLE7=Hate to See You go
TTITLE8=Im Goin Upside Your Head
TTITLE9=Shake Your Hips
TTITLE10=Luedella
TTITLE11=This is it
TTITLE12=Goin Away Baby
TTITLE13=Mighty Long Time
EXTD=
EXTT0=
EXTT1=
EXTT2=
EXTT3=
EXTT4=
EXTT5=
EXTT6=
EXTT7=
EXTT8=
EXTT9=
EXTT10=
EXTT11=
EXTT12=
EXTT13=
PLAYORDER=
